<?xml version="1.0" encoding="utf-8" standalone="no"?>
<!DOCTYPE svg PUBLIC "-//W3C//DTD SVG 1.1//EN"
  "http://www.w3.org/Graphics/SVG/1.1/DTD/svg11.dtd">
<!-- Created with matplotlib (http://matplotlib.org/) -->
<svg height="345pt" version="1.1" viewBox="0 0 460 345" width="460pt" xmlns="http://www.w3.org/2000/svg" xmlns:xlink="http://www.w3.org/1999/xlink">
 <defs>
  <style type="text/css">
*{stroke-linecap:butt;stroke-linejoin:round;}
  </style>
 </defs>
 <g id="figure_1">
  <g id="patch_1">
   <path d="M 0 345.6 
L 460.8 345.6 
L 460.8 0 
L 0 0 
z
" style="fill:#ffffff;"/>
  </g>
  <g id="axes_1">
   <g id="patch_2">
    <path d="M 236.535699 53.568001 
C 210.067694 53.568001 184.326379 62.309169 163.331456 78.426504 
C 142.336533 94.54384 127.240851 117.152328 120.401716 142.72148 
C 113.562581 168.290631 115.355534 195.416424 125.500594 219.862959 
C 135.645653 244.309494 153.585745 264.734391 176.519387 277.948148 
L 236.535699 173.784537 
L 236.535699 53.568001 
z
" style="fill:#1f77b4;"/>
   </g>
   <g id="patch_3">
    <path d="M 176.519387 277.948148 
C 197.459187 290.013106 221.558342 295.488 245.655588 293.654647 
C 269.752835 291.821294 292.746324 282.763525 311.619831 267.669514 
L 236.535699 173.784537 
L 176.519387 277.948148 
z
" style="fill:#ff7f0e;"/>
   </g>
   <g id="patch_4">
    <path d="M 311.619831 267.669514 
C 329.477729 253.387731 342.895514 234.302959 350.291078 212.665504 
C 357.686641 191.028049 358.757419 167.723137 353.377155 145.498678 
L 236.535699 173.784537 
L 311.619831 267.669514 
z
" style="fill:#2ca02c;"/>
   </g>
   <g id="patch_5">
    <path d="M 353.377155 145.498678 
C 349.996512 131.53413 344.139585 118.28808 336.084819 106.390261 
C 328.030053 94.492443 317.907149 84.134439 306.197363 75.808681 
L 236.535699 173.784537 
L 353.377155 145.498678 
z
" style="fill:#d62728;"/>
   </g>
   <g id="patch_6">
    <path d="M 306.197363 75.808681 
C 303.226697 73.696513 300.161505 71.720544 297.011289 69.886901 
C 293.861073 68.053258 290.62909 66.363837 287.325361 64.823875 
L 236.535699 173.784537 
L 306.197363 75.808681 
z
" style="fill:#9467bd;"/>
   </g>
   <g id="patch_7">
    <path d="M 287.325361 64.823875 
C 279.39635 61.127937 271.087546 58.308502 262.546676 56.415697 
C 254.005805 54.522891 245.283787 53.568 236.535691 53.568001 
L 236.535699 173.784537 
L 287.325361 64.823875 
z
" style="fill:#8c564b;"/>
   </g>
   <g id="matplotlib.axis_1"/>
   <g id="matplotlib.axis_2"/>
   <g id="text_1">
    <!-- image | jpeg -->
    <defs>
     <path d="M 9.5 0 
L 17.59375 0 
L 17.59375 54 
L 9.5 54 
z
M 13.59375 65.59375 
C 16.796875 65.59375 19.5 67.90625 19.5 71.09375 
C 19.5 74.59375 16.796875 76.703125 13.59375 76.703125 
C 10.203125 76.703125 7.703125 74.59375 7.703125 71.09375 
C 7.703125 67.90625 10.203125 65.59375 13.59375 65.59375 
" id="SourceHanSansTW-Normal-69"/>
     <path d="M 9.5 0 
L 17.59375 0 
L 17.59375 39.5 
C 22.703125 45.40625 27.5 48.296875 31.703125 48.296875 
C 39 48.296875 42.296875 43.703125 42.296875 33.296875 
L 42.296875 0 
L 50.40625 0 
L 50.40625 39.5 
C 55.59375 45.40625 60.203125 48.296875 64.59375 48.296875 
C 71.796875 48.296875 75.09375 43.703125 75.09375 33.296875 
L 75.09375 0 
L 83.296875 0 
L 83.296875 34.296875 
C 83.296875 48.09375 77.90625 55.40625 66.90625 55.40625 
C 60.40625 55.40625 54.703125 51.09375 48.90625 44.90625 
C 46.796875 51.296875 42.40625 55.40625 34 55.40625 
C 27.703125 55.40625 21.90625 51.203125 17.203125 46 
L 16.90625 46 
L 16.09375 54 
L 9.5 54 
z
" id="SourceHanSansTW-Normal-6d"/>
     <path d="M 21.703125 -1.296875 
C 28.5 -1.296875 34.703125 2.203125 39.90625 6.59375 
L 40.203125 6.59375 
L 40.90625 0 
L 47.59375 0 
L 47.59375 33.5 
C 47.59375 46.5 42.40625 55.40625 29.296875 55.40625 
C 20.59375 55.40625 13 51.40625 8.296875 48.296875 
L 11.59375 42.59375 
C 15.703125 45.5 21.5 48.59375 28 48.59375 
C 37.296875 48.59375 39.59375 41.40625 39.5 34.09375 
C 16.296875 31.5 6 25.703125 6 13.90625 
C 6 4.09375 12.796875 -1.296875 21.703125 -1.296875 
M 23.90625 5.296875 
C 18.40625 5.296875 13.90625 7.90625 13.90625 14.40625 
C 13.90625 21.796875 20.40625 26.40625 39.5 28.59375 
L 39.5 12.796875 
C 34 7.90625 29.40625 5.296875 23.90625 5.296875 
" id="SourceHanSansTW-Normal-61"/>
     <path d="M 27.5 -25.09375 
C 43.90625 -25.09375 54.40625 -16.40625 54.40625 -6.59375 
C 54.40625 2.296875 48.203125 6.203125 35.796875 6.203125 
L 25 6.203125 
C 17.59375 6.203125 15.40625 8.796875 15.40625 12.296875 
C 15.40625 15.40625 17 17.40625 19 19.09375 
C 21.5 17.796875 24.59375 17.09375 27.296875 17.09375 
C 38.203125 17.09375 46.796875 24.5 46.796875 36 
C 46.796875 40.90625 44.796875 45.09375 42.09375 47.703125 
L 53.5 47.703125 
L 53.5 54 
L 34.796875 54 
C 32.90625 54.703125 30.296875 55.40625 27.296875 55.40625 
C 16.40625 55.40625 7.296875 47.796875 7.296875 36.09375 
C 7.296875 29.703125 10.796875 24.40625 14.296875 21.59375 
L 14.296875 21.203125 
C 11.59375 19.203125 8.296875 15.703125 8.296875 11.203125 
C 8.296875 6.90625 10.40625 4 13.203125 2.296875 
L 13.203125 1.90625 
C 8.203125 -1.40625 5.203125 -5.90625 5.203125 -10.5 
C 5.203125 -19.796875 14.203125 -25.09375 27.5 -25.09375 
M 27.296875 22.703125 
C 20.796875 22.703125 15.203125 28 15.203125 36.09375 
C 15.203125 44.40625 20.59375 49.296875 27.296875 49.296875 
C 33.90625 49.296875 39.40625 44.296875 39.40625 36.09375 
C 39.40625 28 33.796875 22.703125 27.296875 22.703125 
M 28.59375 -19.40625 
C 18.40625 -19.40625 12.40625 -15.5 12.40625 -9.5 
C 12.40625 -6.203125 14.203125 -2.703125 18.296875 0.203125 
C 20.796875 -0.40625 23.5 -0.703125 25.203125 -0.703125 
L 35.09375 -0.703125 
C 42.5 -0.703125 46.40625 -2.5 46.40625 -7.796875 
C 46.40625 -13.59375 39.40625 -19.40625 28.59375 -19.40625 
" id="SourceHanSansTW-Normal-67"/>
     <path d="M 30.90625 -1.296875 
C 38.40625 -1.296875 43.90625 1.203125 48.59375 4.203125 
L 45.59375 9.59375 
C 41.59375 6.90625 37.203125 5.203125 31.90625 5.203125 
C 21.09375 5.203125 13.90625 13.203125 13.40625 25.203125 
L 50.296875 25.203125 
C 50.59375 26.5 50.703125 28.296875 50.703125 30.09375 
C 50.703125 45.703125 42.90625 55.40625 29.40625 55.40625 
C 17 55.40625 5.296875 44.5 5.296875 26.90625 
C 5.296875 9.203125 16.703125 -1.296875 30.90625 -1.296875 
M 13.296875 31.09375 
C 14.40625 42.296875 21.5 48.796875 29.5 48.796875 
C 38.296875 48.796875 43.5 42.703125 43.5 31.09375 
z
" id="SourceHanSansTW-Normal-65"/>
     <path id="SourceHanSansTW-Normal-20"/>
     <path d="M 10.296875 -27.90625 
L 16.09375 -27.90625 
L 16.09375 83.59375 
L 10.296875 83.59375 
z
" id="SourceHanSansTW-Normal-7c"/>
     <path d="M 3.5 -24.5 
C 13.59375 -24.5 17.59375 -18 17.59375 -7.09375 
L 17.59375 54 
L 9.5 54 
L 9.5 -7 
C 9.5 -13.59375 8.296875 -17.90625 2.703125 -17.90625 
C 0.703125 -17.90625 -1.203125 -17.296875 -2.59375 -16.90625 
L -4.203125 -23.09375 
C -2.40625 -23.90625 0.40625 -24.5 3.5 -24.5 
M 13.59375 65.59375 
C 16.90625 65.59375 19.5 67.90625 19.5 71.09375 
C 19.5 74.59375 16.90625 76.703125 13.59375 76.703125 
C 10.296875 76.703125 7.796875 74.59375 7.796875 71.09375 
C 7.796875 67.90625 10.296875 65.59375 13.59375 65.59375 
" id="SourceHanSansTW-Normal-6a"/>
     <path d="M 9.5 -23.203125 
L 17.59375 -23.203125 
L 17.59375 -4.5 
L 17.40625 5 
C 22.5 1 27.59375 -1.296875 32.59375 -1.296875 
C 45.09375 -1.296875 56.203125 9.40625 56.203125 27.90625 
C 56.203125 44.5 48.703125 55.40625 34.59375 55.40625 
C 28.296875 55.40625 22.203125 51.703125 17.203125 47.703125 
L 16.90625 47.703125 
L 16.09375 54 
L 9.5 54 
z
M 31.40625 5.59375 
C 27.703125 5.59375 22.703125 7.09375 17.59375 11.5 
L 17.59375 40.703125 
C 23.09375 45.796875 28 48.5 32.703125 48.5 
C 43.5 48.5 47.703125 40 47.703125 27.796875 
C 47.703125 14.09375 40.796875 5.59375 31.40625 5.59375 
" id="SourceHanSansTW-Normal-70"/>
    </defs>
    <g transform="translate(53.235193 142.399549)scale(0.1 -0.1)">
     <use xlink:href="#SourceHanSansTW-Normal-69"/>
     <use x="26.899994" xlink:href="#SourceHanSansTW-Normal-6d"/>
     <use x="118.799988" xlink:href="#SourceHanSansTW-Normal-61"/>
     <use x="174.699982" xlink:href="#SourceHanSansTW-Normal-67"/>
     <use x="230.399979" xlink:href="#SourceHanSansTW-Normal-65"/>
     <use x="285.299973" xlink:href="#SourceHanSansTW-Normal-20"/>
     <use x="307.59996" xlink:href="#SourceHanSansTW-Normal-7c"/>
     <use x="334.099945" xlink:href="#SourceHanSansTW-Normal-20"/>
     <use x="356.399933" xlink:href="#SourceHanSansTW-Normal-6a"/>
     <use x="383.399918" xlink:href="#SourceHanSansTW-Normal-70"/>
     <use x="444.899902" xlink:href="#SourceHanSansTW-Normal-65"/>
     <use x="499.799896" xlink:href="#SourceHanSansTW-Normal-67"/>
    </g>
   </g>
   <g id="text_2">
    <!-- 42% -->
    <defs>
     <path d="M 10.59375 26.90625 
L 28.296875 53.09375 
C 30.296875 56.59375 32.296875 60.203125 34.09375 63.703125 
L 34.59375 63.703125 
C 34.296875 60.09375 34 54.296875 34 50.703125 
L 34 26.90625 
z
M 51.703125 26.90625 
L 41.703125 26.90625 
L 41.703125 73.203125 
L 33 73.203125 
L 1.90625 25.703125 
L 1.90625 20.40625 
L 34 20.40625 
L 34 0 
L 41.703125 0 
L 41.703125 20.40625 
L 51.703125 20.40625 
z
" id="SourceHanSansTW-Normal-34"/>
     <path d="M 4.5 0 
L 49.796875 0 
L 49.796875 7 
L 28.796875 7 
C 25.09375 7 20.703125 6.796875 16.796875 6.40625 
C 34.703125 23.203125 46.296875 38.296875 46.296875 53.09375 
C 46.296875 66.09375 38.296875 74.5 25.296875 74.5 
C 16.203125 74.5 9.90625 70.203125 4 63.796875 
L 8.796875 59.203125 
C 13 64.09375 18.296875 67.90625 24.40625 67.90625 
C 33.796875 67.90625 38.296875 61.40625 38.296875 52.796875 
C 38.296875 40.09375 27.90625 25.296875 4.5 4.90625 
z
" id="SourceHanSansTW-Normal-32"/>
     <path d="M 20.40625 28.40625 
C 30.40625 28.40625 36.796875 36.796875 36.796875 51.59375 
C 36.796875 66.296875 30.40625 74.5 20.40625 74.5 
C 10.40625 74.5 4 66.296875 4 51.59375 
C 4 36.796875 10.40625 28.40625 20.40625 28.40625 
M 20.40625 33.59375 
C 14.40625 33.59375 10.296875 39.796875 10.296875 51.59375 
C 10.296875 63.40625 14.40625 69.40625 20.40625 69.40625 
C 26.40625 69.40625 30.5 63.40625 30.5 51.59375 
C 30.5 39.796875 26.40625 33.59375 20.40625 33.59375 
M 22.5 -1.296875 
L 28.203125 -1.296875 
L 68.703125 74.5 
L 63 74.5 
z
M 71 -1.296875 
C 80.796875 -1.296875 87.40625 7 87.40625 21.90625 
C 87.40625 36.5 80.796875 44.796875 71 44.796875 
C 61 44.796875 54.59375 36.5 54.59375 21.90625 
C 54.59375 7 61 -1.296875 71 -1.296875 
M 71 3.796875 
C 64.90625 3.796875 60.90625 10 60.90625 21.90625 
C 60.90625 33.703125 64.90625 39.59375 71 39.59375 
C 77 39.59375 81.09375 33.703125 81.09375 21.90625 
C 81.09375 10 77 3.796875 71 3.796875 
" id="SourceHanSansTW-Normal-25"/>
    </defs>
    <g transform="translate(146.86115 154.389066)scale(0.0833 -0.0833)">
     <use xlink:href="#SourceHanSansTW-Normal-34"/>
     <use x="54.899994" xlink:href="#SourceHanSansTW-Normal-32"/>
     <use x="109.799988" xlink:href="#SourceHanSansTW-Normal-25"/>
    </g>
   </g>
   <g id="text_3">
    <!-- video | mp4 -->
    <defs>
     <path d="M 21 0 
L 30.5 0 
L 49.796875 54 
L 41.796875 54 
L 31.09375 22.59375 
C 29.5 17.296875 27.59375 11.796875 26 6.703125 
L 25.59375 6.703125 
C 23.90625 11.796875 22.09375 17.296875 20.5 22.59375 
L 9.796875 54 
L 1.296875 54 
z
" id="SourceHanSansTW-Normal-76"/>
     <path d="M 27.703125 -1.296875 
C 34.296875 -1.296875 40.09375 2.203125 44.40625 6.5 
L 44.59375 6.5 
L 45.40625 0 
L 52.09375 0 
L 52.09375 79.59375 
L 44 79.59375 
L 44 58.40625 
L 44.40625 49 
C 39.5 53 35.296875 55.40625 28.90625 55.40625 
C 16.5 55.40625 5.40625 44.40625 5.40625 26.90625 
C 5.40625 8.90625 14.09375 -1.296875 27.703125 -1.296875 
M 29.40625 5.59375 
C 19.5 5.59375 13.90625 13.703125 13.90625 27 
C 13.90625 39.59375 21 48.5 30.203125 48.5 
C 34.90625 48.5 39.09375 46.796875 44 42.5 
L 44 13.296875 
C 39.203125 8.203125 34.59375 5.59375 29.40625 5.59375 
" id="SourceHanSansTW-Normal-64"/>
     <path d="M 30.09375 -1.296875 
C 43.296875 -1.296875 55 9.09375 55 26.90625 
C 55 45 43.296875 55.40625 30.09375 55.40625 
C 16.90625 55.40625 5.296875 45 5.296875 26.90625 
C 5.296875 9.09375 16.90625 -1.296875 30.09375 -1.296875 
M 30.09375 5.5 
C 20.40625 5.5 13.703125 14.09375 13.703125 26.90625 
C 13.703125 39.796875 20.40625 48.5 30.09375 48.5 
C 39.796875 48.5 46.59375 39.796875 46.59375 26.90625 
C 46.59375 14.09375 39.796875 5.5 30.09375 5.5 
" id="SourceHanSansTW-Normal-6f"/>
    </defs>
    <g transform="translate(246.567577 308.426033)scale(0.1 -0.1)">
     <use xlink:href="#SourceHanSansTW-Normal-76"/>
     <use x="51.099991" xlink:href="#SourceHanSansTW-Normal-69"/>
     <use x="77.999985" xlink:href="#SourceHanSansTW-Normal-64"/>
     <use x="139.499969" xlink:href="#SourceHanSansTW-Normal-65"/>
     <use x="194.399963" xlink:href="#SourceHanSansTW-Normal-6f"/>
     <use x="254.59996" xlink:href="#SourceHanSansTW-Normal-20"/>
     <use x="276.899948" xlink:href="#SourceHanSansTW-Normal-7c"/>
     <use x="303.399933" xlink:href="#SourceHanSansTW-Normal-20"/>
     <use x="325.699921" xlink:href="#SourceHanSansTW-Normal-6d"/>
     <use x="417.599915" xlink:href="#SourceHanSansTW-Normal-70"/>
     <use x="479.099899" xlink:href="#SourceHanSansTW-Normal-34"/>
    </g>
   </g>
   <g id="text_4">
    <!-- 19% -->
    <defs>
     <path d="M 8.90625 0 
L 48.296875 0 
L 48.296875 6.796875 
L 33.40625 6.796875 
L 33.40625 73.203125 
L 27.203125 73.203125 
C 23.40625 70.90625 18.703125 69.296875 12.40625 68.203125 
L 12.40625 62.90625 
L 25.296875 62.90625 
L 25.296875 6.796875 
L 8.90625 6.796875 
z
" id="SourceHanSansTW-Normal-31"/>
     <path d="M 25.796875 34 
C 16.703125 34 12.296875 40.796875 12.296875 50.90625 
C 12.296875 61.09375 17.796875 68.09375 25.09375 68.09375 
C 35 68.09375 40.796875 59.40625 41.59375 44.09375 
C 36.5 36.90625 30.796875 34 25.796875 34 
M 5.90625 6 
C 9.90625 1.796875 15.40625 -1.296875 23.09375 -1.296875 
C 36.703125 -1.296875 49.40625 10 49.40625 40 
C 49.40625 62.90625 39.203125 74.5 25.09375 74.5 
C 13.90625 74.5 4.5 64.90625 4.5 50.90625 
C 4.5 35.796875 12.296875 27.90625 24.5 27.90625 
C 30.90625 27.90625 37.09375 31.59375 41.703125 37.203125 
C 41 13.59375 32.5 5.5 22.90625 5.5 
C 18 5.5 13.59375 7.59375 10.40625 11.09375 
z
" id="SourceHanSansTW-Normal-39"/>
    </defs>
    <g transform="translate(234.538861 260.042284)scale(0.0833 -0.0833)">
     <use xlink:href="#SourceHanSansTW-Normal-31"/>
     <use x="54.899994" xlink:href="#SourceHanSansTW-Normal-39"/>
     <use x="109.799988" xlink:href="#SourceHanSansTW-Normal-25"/>
    </g>
   </g>
   <g id="text_5">
    <!-- audio | mpeg -->
    <defs>
     <path d="M 25.09375 -1.296875 
C 32.59375 -1.296875 38 2.703125 43.09375 8.59375 
L 43.40625 8.59375 
L 44.09375 0 
L 50.796875 0 
L 50.796875 54 
L 42.703125 54 
L 42.703125 15.296875 
C 37.296875 8.703125 33.203125 5.796875 27.5 5.796875 
C 19.90625 5.796875 16.796875 10.296875 16.796875 20.703125 
L 16.796875 54 
L 8.703125 54 
L 8.703125 19.703125 
C 8.703125 5.90625 13.796875 -1.296875 25.09375 -1.296875 
" id="SourceHanSansTW-Normal-75"/>
    </defs>
    <g transform="translate(361.666615 219.337975)scale(0.1 -0.1)">
     <use xlink:href="#SourceHanSansTW-Normal-61"/>
     <use x="55.899994" xlink:href="#SourceHanSansTW-Normal-75"/>
     <use x="116.099991" xlink:href="#SourceHanSansTW-Normal-64"/>
     <use x="177.599976" xlink:href="#SourceHanSansTW-Normal-69"/>
     <use x="204.499969" xlink:href="#SourceHanSansTW-Normal-6f"/>
     <use x="264.699966" xlink:href="#SourceHanSansTW-Normal-20"/>
     <use x="286.999954" xlink:href="#SourceHanSansTW-Normal-7c"/>
     <use x="313.499939" xlink:href="#SourceHanSansTW-Normal-20"/>
     <use x="335.799927" xlink:href="#SourceHanSansTW-Normal-6d"/>
     <use x="427.699921" xlink:href="#SourceHanSansTW-Normal-70"/>
     <use x="489.199905" xlink:href="#SourceHanSansTW-Normal-65"/>
     <use x="544.099899" xlink:href="#SourceHanSansTW-Normal-67"/>
    </g>
   </g>
   <g id="text_6">
    <!-- 18% -->
    <defs>
     <path d="M 27.703125 -1.296875 
C 41.203125 -1.296875 50.296875 7 50.296875 17.5 
C 50.296875 27.5 44.296875 33 37.90625 36.703125 
L 37.90625 37.203125 
C 42.203125 40.59375 47.796875 47.296875 47.796875 55 
C 47.796875 66.203125 40.296875 74.296875 27.90625 74.296875 
C 16.703125 74.296875 8.203125 66.796875 8.203125 55.796875 
C 8.203125 48.09375 12.796875 42.59375 18.09375 39 
L 18.09375 38.59375 
C 11.40625 34.90625 4.5 28.09375 4.5 18.203125 
C 4.5 6.90625 14.296875 -1.296875 27.703125 -1.296875 
M 32.703125 39.40625 
C 24 42.796875 15.703125 46.703125 15.703125 55.796875 
C 15.703125 63.09375 20.796875 68.09375 27.703125 68.09375 
C 36 68.09375 40.703125 62 40.703125 54.59375 
C 40.703125 49 37.90625 43.796875 32.703125 39.40625 
M 27.796875 4.796875 
C 18.703125 4.796875 11.90625 10.796875 11.90625 18.796875 
C 11.90625 26.09375 16.296875 32.09375 22.5 36 
C 33.09375 31.703125 42.5 27.90625 42.5 17.703125 
C 42.5 10.296875 36.59375 4.796875 27.796875 4.796875 
" id="SourceHanSansTW-Normal-38"/>
    </defs>
    <g transform="translate(307.783703 203.349883)scale(0.0833 -0.0833)">
     <use xlink:href="#SourceHanSansTW-Normal-31"/>
     <use x="54.899994" xlink:href="#SourceHanSansTW-Normal-38"/>
     <use x="109.799988" xlink:href="#SourceHanSansTW-Normal-25"/>
    </g>
   </g>
   <g id="text_7">
    <!-- audio | ogg -->
    <g transform="translate(346.039731 102.435209)scale(0.1 -0.1)">
     <use xlink:href="#SourceHanSansTW-Normal-61"/>
     <use x="55.899994" xlink:href="#SourceHanSansTW-Normal-75"/>
     <use x="116.099991" xlink:href="#SourceHanSansTW-Normal-64"/>
     <use x="177.599976" xlink:href="#SourceHanSansTW-Normal-69"/>
     <use x="204.499969" xlink:href="#SourceHanSansTW-Normal-6f"/>
     <use x="264.699966" xlink:href="#SourceHanSansTW-Normal-20"/>
     <use x="286.999954" xlink:href="#SourceHanSansTW-Normal-7c"/>
     <use x="313.499939" xlink:href="#SourceHanSansTW-Normal-20"/>
     <use x="335.799927" xlink:href="#SourceHanSansTW-Normal-6f"/>
     <use x="395.999924" xlink:href="#SourceHanSansTW-Normal-67"/>
     <use x="451.699921" xlink:href="#SourceHanSansTW-Normal-67"/>
    </g>
   </g>
   <g id="text_8">
    <!-- 11% -->
    <g transform="translate(297.839322 128.957214)scale(0.0833 -0.0833)">
     <use xlink:href="#SourceHanSansTW-Normal-31"/>
     <use x="54.899994" xlink:href="#SourceHanSansTW-Normal-31"/>
     <use x="109.799988" xlink:href="#SourceHanSansTW-Normal-25"/>
    </g>
   </g>
   <g id="text_9">
    <!-- application | octet-stream -->
    <defs>
     <path d="M 18.296875 -1.296875 
C 20.59375 -1.296875 21.90625 -1 23.203125 -0.59375 
L 22 5.703125 
C 21 5.5 20.59375 5.5 20.09375 5.5 
C 18.703125 5.5 17.59375 6.59375 17.59375 9.296875 
L 17.59375 79.59375 
L 9.5 79.59375 
L 9.5 9.90625 
C 9.5 2.703125 12.09375 -1.296875 18.296875 -1.296875 
" id="SourceHanSansTW-Normal-6c"/>
     <path d="M 30.40625 -1.296875 
C 37 -1.296875 43 1.296875 47.796875 5.59375 
L 44.203125 11 
C 40.796875 8 36.203125 5.5 31.09375 5.5 
C 20.703125 5.5 13.703125 14.09375 13.703125 26.90625 
C 13.703125 39.796875 21.203125 48.5 31.296875 48.5 
C 35.796875 48.5 39.296875 46.5 42.5 43.5 
L 46.796875 48.90625 
C 43 52.40625 38.09375 55.40625 31 55.40625 
C 17.296875 55.40625 5.296875 45 5.296875 26.90625 
C 5.296875 9.09375 16.203125 -1.296875 30.40625 -1.296875 
" id="SourceHanSansTW-Normal-63"/>
     <path d="M 25.90625 -1.296875 
C 28.90625 -1.296875 32.5 -0.296875 35.5 0.703125 
L 33.90625 6.796875 
C 32.09375 6.09375 29.59375 5.40625 27.59375 5.40625 
C 21.09375 5.40625 19.09375 9.40625 19.09375 16 
L 19.09375 47.296875 
L 34 47.296875 
L 34 54 
L 19.09375 54 
L 19.09375 69.296875 
L 12.203125 69.296875 
L 11.296875 54 
L 2.796875 53.5 
L 2.796875 47.296875 
L 11 47.296875 
L 11 16.296875 
C 11 5.703125 14.59375 -1.296875 25.90625 -1.296875 
" id="SourceHanSansTW-Normal-74"/>
     <path d="M 9.5 0 
L 17.59375 0 
L 17.59375 39.5 
C 23.203125 45.296875 27.296875 48.296875 33 48.296875 
C 40.5 48.296875 43.703125 43.703125 43.703125 33.296875 
L 43.703125 0 
L 51.90625 0 
L 51.90625 34.296875 
C 51.90625 48.09375 46.703125 55.40625 35.40625 55.40625 
C 28 55.40625 22.40625 51.203125 17.203125 46.09375 
L 16.90625 46.09375 
L 16.09375 54 
L 9.5 54 
z
" id="SourceHanSansTW-Normal-6e"/>
     <path d="M 4.59375 24.703125 
L 29.90625 24.703125 
L 29.90625 31.09375 
L 4.59375 31.09375 
z
" id="SourceHanSansTW-Normal-2d"/>
     <path d="M 23.296875 -1.296875 
C 35.796875 -1.296875 42.59375 5.90625 42.59375 14.5 
C 42.59375 24.796875 33.796875 27.90625 25.90625 31 
C 19.703125 33.203125 13.703125 35.296875 13.703125 40.703125 
C 13.703125 45.09375 17 48.90625 24.203125 48.90625 
C 29.09375 48.90625 33 46.796875 36.703125 44.09375 
L 40.59375 49.40625 
C 36.5 52.703125 30.59375 55.40625 24.203125 55.40625 
C 12.59375 55.40625 5.90625 48.703125 5.90625 40.296875 
C 5.90625 31.09375 14.5 27.5 22.203125 24.703125 
C 28.296875 22.5 34.796875 19.90625 34.796875 14.09375 
C 34.796875 9.09375 31.09375 5.09375 23.59375 5.09375 
C 16.796875 5.09375 12 7.703125 7.296875 11.59375 
L 3.203125 6.09375 
C 8.296875 1.90625 15.59375 -1.296875 23.296875 -1.296875 
" id="SourceHanSansTW-Normal-73"/>
     <path d="M 9.5 0 
L 17.59375 0 
L 17.59375 35.203125 
C 21.296875 44.59375 26.90625 48 31.5 48 
C 33.59375 48 34.796875 47.703125 36.59375 47.09375 
L 38.203125 54.203125 
C 36.40625 55.09375 34.796875 55.40625 32.5 55.40625 
C 26.40625 55.40625 20.90625 50.90625 17.203125 44.09375 
L 16.90625 44.09375 
L 16.09375 54 
L 9.5 54 
z
" id="SourceHanSansTW-Normal-72"/>
    </defs>
    <g transform="translate(303.058848 62.281513)scale(0.1 -0.1)">
     <use xlink:href="#SourceHanSansTW-Normal-61"/>
     <use x="55.899994" xlink:href="#SourceHanSansTW-Normal-70"/>
     <use x="117.399979" xlink:href="#SourceHanSansTW-Normal-70"/>
     <use x="178.899963" xlink:href="#SourceHanSansTW-Normal-6c"/>
     <use x="206.799957" xlink:href="#SourceHanSansTW-Normal-69"/>
     <use x="233.699951" xlink:href="#SourceHanSansTW-Normal-63"/>
     <use x="284.299942" xlink:href="#SourceHanSansTW-Normal-61"/>
     <use x="340.199936" xlink:href="#SourceHanSansTW-Normal-74"/>
     <use x="377.09993" xlink:href="#SourceHanSansTW-Normal-69"/>
     <use x="403.999924" xlink:href="#SourceHanSansTW-Normal-6f"/>
     <use x="464.199921" xlink:href="#SourceHanSansTW-Normal-6e"/>
     <use x="524.699905" xlink:href="#SourceHanSansTW-Normal-20"/>
     <use x="546.999893" xlink:href="#SourceHanSansTW-Normal-7c"/>
     <use x="573.499878" xlink:href="#SourceHanSansTW-Normal-20"/>
     <use x="595.799866" xlink:href="#SourceHanSansTW-Normal-6f"/>
     <use x="655.999863" xlink:href="#SourceHanSansTW-Normal-63"/>
     <use x="706.599854" xlink:href="#SourceHanSansTW-Normal-74"/>
     <use x="743.499847" xlink:href="#SourceHanSansTW-Normal-65"/>
     <use x="798.399841" xlink:href="#SourceHanSansTW-Normal-74"/>
     <use x="835.299835" xlink:href="#SourceHanSansTW-Normal-2d"/>
     <use x="869.599823" xlink:href="#SourceHanSansTW-Normal-73"/>
     <use x="915.899811" xlink:href="#SourceHanSansTW-Normal-74"/>
     <use x="952.799805" xlink:href="#SourceHanSansTW-Normal-72"/>
     <use x="990.699799" xlink:href="#SourceHanSansTW-Normal-65"/>
     <use x="1045.599792" xlink:href="#SourceHanSansTW-Normal-61"/>
     <use x="1101.499786" xlink:href="#SourceHanSansTW-Normal-6d"/>
    </g>
   </g>
   <g id="text_10">
    <!-- 3% -->
    <defs>
     <path d="M 26.203125 -1.296875 
C 39 -1.296875 49.203125 6.5 49.203125 19.5 
C 49.203125 29.59375 42.203125 36.203125 33.59375 38.203125 
L 33.59375 38.59375 
C 41.40625 41.40625 46.703125 47.296875 46.703125 56.40625 
C 46.703125 68 37.90625 74.5 25.90625 74.59375 
C 17.5 74.5 11.09375 70.796875 5.703125 65.90625 
L 10.203125 60.59375 
C 14.296875 64.796875 19.59375 67.90625 25.59375 68 
C 33.5 67.90625 38.40625 63.09375 38.40625 55.796875 
C 38.40625 47.59375 33.09375 41.296875 17.796875 41.296875 
L 17.796875 34.90625 
C 34.796875 34.90625 41 28.796875 41 19.703125 
C 41 11 34.59375 5.5 25.703125 5.5 
C 17 5.5 11.5 9.59375 7.203125 14 
L 3 8.703125 
C 7.703125 3.59375 14.796875 -1.296875 26.203125 -1.296875 
" id="SourceHanSansTW-Normal-33"/>
    </defs>
    <g transform="translate(272.774696 103.404862)scale(0.0833 -0.0833)">
     <use xlink:href="#SourceHanSansTW-Normal-33"/>
     <use x="54.899994" xlink:href="#SourceHanSansTW-Normal-25"/>
    </g>
   </g>
   <g id="text_11">
    <!-- other -->
    <defs>
     <path d="M 9.5 0 
L 17.59375 0 
L 17.59375 39.5 
C 23.203125 45.296875 27.296875 48.296875 33 48.296875 
C 40.5 48.296875 43.703125 43.703125 43.703125 33.296875 
L 43.703125 0 
L 51.90625 0 
L 51.90625 34.296875 
C 51.90625 48.09375 46.703125 55.40625 35.40625 55.40625 
C 28 55.40625 22.5 51.203125 17.296875 46.203125 
L 17.59375 57.5 
L 17.59375 79.59375 
L 9.5 79.59375 
z
" id="SourceHanSansTW-Normal-68"/>
    </defs>
    <g transform="translate(265.147773 47.498344)scale(0.1 -0.1)">
     <use xlink:href="#SourceHanSansTW-Normal-6f"/>
     <use x="60.199997" xlink:href="#SourceHanSansTW-Normal-74"/>
     <use x="97.099991" xlink:href="#SourceHanSansTW-Normal-68"/>
     <use x="157.299988" xlink:href="#SourceHanSansTW-Normal-65"/>
     <use x="212.199982" xlink:href="#SourceHanSansTW-Normal-72"/>
    </g>
   </g>
   <g id="text_12">
    <!-- 7% -->
    <defs>
     <path d="M 20 0 
L 28.5 0 
C 29.703125 28.59375 32.90625 46 50.203125 68.296875 
L 50.203125 73.203125 
L 4.90625 73.203125 
L 4.90625 66.203125 
L 40.796875 66.203125 
C 26.40625 46.203125 21.203125 28.203125 20 0 
" id="SourceHanSansTW-Normal-37"/>
    </defs>
    <g transform="translate(248.649467 93.975018)scale(0.0833 -0.0833)">
     <use xlink:href="#SourceHanSansTW-Normal-37"/>
     <use x="54.899994" xlink:href="#SourceHanSansTW-Normal-25"/>
    </g>
   </g>
  </g>
 </g>
</svg>
